# xmcd
#
# Track frame offsets: 
#        183
#        12993
#        26113
#        40830
#        53125
#        66095
#        83425
#        99423
#        115080
#        126933
#        138925
#        150563
#        162265
#        179590
#        193830
#        210548
#        224430
#        241093
#        259453
#
# Disc length: 3631 seconds
#
# Revision: 2
# Processed by: cddbd v1.5.2PL0 Copyright (c) Steve Scherf et al.
# Submitted via: ExactAudioCopy v0.99pb5
#
DISCID=090e2d13
DTITLE=Aretha Franklin - The Collection
DYEAR=1987
DGENRE=Funk
TTITLE0=Walk On By
TTITLE1=It Ain't Necessarily So
TTITLE2=Try A Little Tenderness
TTITLE3=I'm Sitting On Top Of The World
TTITLE4=Skylark
TTITLE5=Solitude
TTITLE6=What A Difference A Day Made (Live)
TTITLE7=Once In A Lifetime (Live)
TTITLE8=Love For Sale (Live)
TTITLE9=Over The Rainbow
TTITLE10=You Made Me Love You
TTITLE11=Lover Come Back To Me
TTITLE12=Make Someone Happy
TTITLE13=Say It Isn't So
TTITLE14=Unforgettable
TTITLE15=My Guy
TTITLE16=Misty
TTITLE17=Ol'Man River
TTITLE18=I Apologise
EXTD=
EXTT0=
EXTT1=
EXTT2=
EXTT3=
EXTT4=
EXTT5=
EXTT6=
EXTT7=
EXTT8=
EXTT9=
EXTT10=
EXTT11=
EXTT12=
EXTT13=
EXTT14=
EXTT15=
EXTT16=
EXTT17=
EXTT18=
PLAYORDER=
